<svg width="35" height="28" viewBox="0 0 35 28" fill="none" xmlns="http://www.w3.org/2000/svg">
<path d="M2.5 27.75H32.5C33.5313 27.75 34.375 26.7188 34.375 25.4583C34.375 24.1979 33.5313 23.1667 32.5 23.1667H2.5C1.46875 23.1667 0.625 24.1979 0.625 25.4583C0.625 26.7188 1.46875 27.75 2.5 27.75ZM2.5 16.2917H32.5C33.5313 16.2917 34.375 15.2604 34.375 14C34.375 12.7396 33.5313 11.7083 32.5 11.7083H2.5C1.46875 11.7083 0.625 12.7396 0.625 14C0.625 15.2604 1.46875 16.2917 2.5 16.2917ZM0.625 2.54167C0.625 3.80208 1.46875 4.83333 2.5 4.83333H32.5C33.5313 4.83333 34.375 3.80208 34.375 2.54167C34.375 1.28125 33.5313 0.25 32.5 0.25H2.5C1.46875 0.25 0.625 1.28125 0.625 2.54167Z" fill="#D63031"/>
</svg>
