<svg width="275" height="267" viewBox="0 0 275 267" fill="none" xmlns="http://www.w3.org/2000/svg">
<path d="M67.6375 236.731L76.0055 241.563L63.9274 262.483C62.5932 264.793 59.6385 265.585 57.3277 264.251C55.017 262.917 54.2253 259.962 55.5594 257.651L67.6375 236.731Z" fill="#D63031"/>
<path d="M196.787 241.567L205.154 236.735L217.232 257.655C218.567 259.966 217.775 262.921 215.464 264.255C213.153 265.589 210.199 264.798 208.865 262.487L196.787 241.567Z" fill="#D63031"/>
<path d="M250.018 140.105C250.018 76.734 198.646 25.3621 135.275 25.3621C71.9047 25.3621 20.5327 76.734 20.5327 140.105C20.5327 203.475 71.9047 254.847 135.275 254.847C198.646 254.847 250.018 203.475 250.018 140.105Z" fill="#F6F6FC"/>
<path d="M135.275 62.8052H135.275C133.941 62.8052 132.859 63.8867 132.859 65.2208V132.858C132.859 134.192 133.941 135.274 135.275 135.274C136.609 135.274 137.691 134.192 137.691 132.858V65.2208C137.691 63.8867 136.609 62.8052 135.275 62.8052Z" fill="#0984E3"/>
<path d="M135.275 142.523C136.609 142.523 137.691 141.441 137.691 140.107C137.691 138.773 136.609 137.691 135.275 137.691C133.941 137.691 132.859 138.773 132.859 140.107C132.859 141.441 133.941 142.523 135.275 142.523Z" fill="#2D3436"/>
<path d="M142.521 137.69C141.187 137.69 140.106 138.772 140.106 140.106C140.106 141.44 141.187 142.521 142.521 142.521H198.081C199.415 142.521 200.496 141.44 200.496 140.106C200.496 138.772 199.415 137.69 198.081 137.69H142.521Z" fill="#0984E3"/>
<path d="M250.018 140.105C250.018 76.734 198.646 25.3621 135.275 25.3621C71.9047 25.3621 20.5327 76.734 20.5327 140.105C20.5327 203.475 71.9047 254.847 135.275 254.847C198.646 254.847 250.018 203.475 250.018 140.105Z" stroke="#2D3436" stroke-width="12.0782"/>
<path d="M52.7291 51.7275L49.3129 48.3113L45.8967 51.7275L49.3129 55.1437L52.7291 51.7275Z" fill="#2D3436"/>
<path d="M220.822 48.0606L217.406 51.4768L220.822 54.893L224.238 51.4768L220.822 48.0606Z" fill="#2D3436"/>
<path d="M46.5387 51.5983C34.1825 63.9545 26.2399 72.0591 25.5687 72.7302C11.4474 58.6089 10.0164 37.1447 22.3726 24.7885C34.7288 12.4324 56.193 13.8633 70.3143 27.9847C70.3143 27.9847 58.8948 39.2422 46.5387 51.5983Z" fill="#D63031"/>
<path d="M134.561 14.4478C127.891 14.4478 123.559 14.4937 123.196 14.4937C123.196 6.48908 128.604 0 135.275 0C141.946 0 147.353 6.48908 147.353 14.4937C147.353 14.4937 141.231 14.4478 134.561 14.4478Z" fill="#D63031"/>
<path d="M221.834 49.0801C209.571 36.8164 201.525 28.9345 200.859 28.2683C215.104 14.0236 236.593 12.4177 248.857 24.6813C261.121 36.945 259.514 58.4343 245.27 72.6791C245.27 72.6791 234.097 61.3438 221.834 49.0801Z" fill="#D63031"/>
<path d="M137.691 14.4939H132.859V19.3252H137.691V14.4939Z" fill="#2D3436"/>
</svg>
